<svg width="28" height="24" viewBox="0 0 28 24" fill="none" xmlns="http://www.w3.org/2000/svg">
<path fill-rule="evenodd" clip-rule="evenodd" d="M18.3315 6.36904C16.7851 4.55426 14.4827 3.40331 11.9116 3.40331C9.34046 3.40331 7.03813 4.55426 5.49171 6.36904V2.93923C5.49171 2.31687 5.79798 1.76604 6.26801 1.42924C6.27712 1.41762 6.28634 1.4093 6.29567 1.40431L6.33566 1.38298C6.44506 1.31167 6.56244 1.25158 6.68617 1.20435C6.90451 1.09759 7.1266 0.997318 7.35218 0.903776C8.7566 0.321418 10.2966 0 11.9116 0C13.5266 0 15.0666 0.321418 16.471 0.903776C16.6966 0.997318 16.9187 1.09759 17.137 1.20435C17.2608 1.25158 17.3781 1.31167 17.4875 1.38298L17.5275 1.40431C17.5363 1.40902 17.545 1.41695 17.5536 1.42812C18.0245 1.76482 18.3315 2.31618 18.3315 2.93923V6.36904ZM11.9116 20.2652C16.4763 20.2652 20.1937 16.6376 20.3382 12.108C20.3411 12.0596 20.3425 12.0109 20.3425 11.9618V3.497C22.4933 5.65193 23.8232 8.62646 23.8232 11.9116C23.8232 18.4902 18.4902 23.8232 11.9116 23.8232C5.33301 23.8232 0 18.4902 0 11.9116C0 8.62646 1.32989 5.65193 3.48066 3.497V11.9618C3.48066 12.0109 3.48213 12.0596 3.48502 12.108C3.62953 16.6376 7.34693 20.2652 11.9116 20.2652ZM27.9227 21.7348C27.9227 22.8882 26.9876 23.8232 25.8343 23.8232C24.6809 23.8232 23.7459 22.8882 23.7459 21.7348C23.7459 20.5814 24.6809 19.6464 25.8343 19.6464C26.9876 19.6464 27.9227 20.5814 27.9227 21.7348Z" fill="white"/>
</svg>
